<svg id="Layer_1" data-name="Layer 1" xmlns="http://www.w3.org/2000/svg" xmlns:xlink="http://www.w3.org/1999/xlink" viewBox="0 0 2692.31 451.58"><defs><style>.cls-1{fill:url(#linear-gradient);}.cls-2{fill:#fefefe;}.cls-3{fill:url(#linear-gradient-2);}.cls-4{fill:url(#linear-gradient-3);}.cls-5{fill:url(#linear-gradient-4);}.cls-6{fill:url(#linear-gradient-5);}.cls-7{fill:url(#linear-gradient-6);}.cls-8{fill:url(#linear-gradient-7);}</style><linearGradient id="linear-gradient" x1="2722.64" y1="563.53" x2="52.65" y2="219.02" gradientUnits="userSpaceOnUse"><stop offset="0" stop-color="#61b1d4"/><stop offset="0.85" stop-color="#b36ad5"/></linearGradient><linearGradient id="linear-gradient-2" x1="2702.63" y1="511.61" x2="48.19" y2="169.1" xlink:href="#linear-gradient"/><linearGradient id="linear-gradient-3" x1="2687.93" y1="453.01" x2="49.06" y2="112.52" xlink:href="#linear-gradient"/><linearGradient id="linear-gradient-4" x1="2691.64" y1="396.3" x2="39.52" y2="54.09" xlink:href="#linear-gradient"/><linearGradient id="linear-gradient-5" x1="2693.82" y1="353.79" x2="24.08" y2="9.31" xlink:href="#linear-gradient"/><linearGradient id="linear-gradient-6" x1="2680.1" y1="292.51" x2="27.98" y2="-49.69" xlink:href="#linear-gradient"/><linearGradient id="linear-gradient-7" x1="2674.61" y1="253.68" x2="16.96" y2="-89.24" xlink:href="#linear-gradient"/></defs><path class="cls-1" d="M311.68,421.92,289.6,356.73H159l-22.08,65.19H32.12L169.28,42.84H280.39L417.55,421.92Zm-48.6-144.59L224.34,162.89,186,277.33Z"/><path class="cls-2" d="M276.89,47.84,410.43,416.92H315.27l-22.08-65.19H155.44l-22.08,65.19H39.25L172.79,47.84h104.1M179.1,282.33h91L224.31,147.21,179.1,282.33M283.9,37.84H165.77l-2.39,6.6L29.84,413.52,25,426.92H140.53l2.3-6.79,19.78-58.4H286l19.79,58.4,2.3,6.79H424.68l-4.85-13.4L286.29,44.44l-2.39-6.6ZM193,272.33l31.38-93.77,31.74,93.77Z"/><path class="cls-3" d="M445.91,421.92V42.84H617.05c38.49,0,69.18,9,91.21,26.88,22.34,18.1,33.66,42.93,33.66,73.81,0,22.78-6.11,42.05-18.17,57.26a90.79,90.79,0,0,1-33.61,26.27,89.91,89.91,0,0,1,39.69,29.33,95.67,95.67,0,0,1,20.5,60.11c0,32.26-11.48,58.22-34.12,77.18-22.37,18.74-53.79,28.24-93.38,28.24Zm161.15-82.55c13.8,0,24.49-3.06,31.77-9.1,7.1-5.89,10.55-14.35,10.55-25.86s-3.64-20.27-11.14-26.7-18.46-9.83-32.23-9.83H545.82v71.49ZM599.7,192.16c13.47,0,23.81-2.89,30.73-8.59,6.74-5.53,10-13.64,10-24.79s-3.29-19.38-10.06-25.1-17.25-8.81-30.68-8.81H545.82v67.29Z"/><path class="cls-2" d="M617.05,47.84q56.25,0,88.06,25.77t31.81,69.92q0,32.61-17.08,54.15t-45.48,30q32.05,6.84,51.52,31.81a90.38,90.38,0,0,1,19.45,57q0,46.28-32.33,73.35t-90.17,27.07H450.91V47.84H617.05M540.82,197.16H599.7q22.08,0,33.91-9.73t11.83-28.65q0-18.93-11.83-28.92t-33.91-10H540.82v77.29m0,147.21h66.24q22.61,0,35-10.25t12.36-29.71q0-19.44-12.88-30.49t-35.49-11H540.82v81.49M617.05,37.84H440.91V426.92H622.83c40.8,0,73.3-9.89,96.59-29.41,23.83-19.95,35.91-47.2,35.91-81a100.52,100.52,0,0,0-21.56-63.18,94.72,94.72,0,0,0-32.13-26.65,95.18,95.18,0,0,0,26-22.77c12.78-16.12,19.25-36.43,19.25-60.37,0-32.46-11.95-58.6-35.51-77.69-22.95-18.58-54.69-28-94.36-28Zm-66.23,92H599.7c12.22,0,21.46,2.57,27.46,7.63,5.57,4.71,8.28,11.67,8.28,21.28s-2.67,16.4-8.18,20.93c-6,4.94-15.28,7.45-27.56,7.45H550.82V129.87Zm0,143H606c12.54,0,22.29,2.9,29,8.63,6.32,5.42,9.39,12.91,9.39,22.9s-2.86,17.13-8.74,22c-6.36,5.27-16,7.95-28.58,7.95H550.82V272.88Z"/><path class="cls-4" d="M971.93,425.6c-35.4,0-68.33-8.35-97.86-24.81a186.52,186.52,0,0,1-70.75-69.4c-17.37-29.55-26.18-63.21-26.18-100.06s8.81-70.43,26.19-99.81A187.28,187.28,0,0,1,874.07,62.4c29.55-16.46,62.47-24.81,97.86-24.81s68.32,8.35,97.86,24.81A183.34,183.34,0,0,1,1140,131.56c17,29.39,25.65,63,25.65,99.77s-8.72,70.49-25.91,100a185.2,185.2,0,0,1-70.23,69.41C1040.18,417.25,1007.34,425.6,971.93,425.6Zm0-296.52c-28.19,0-50.92,9.18-67.55,27.3s-25.24,43.45-25.24,75c0,31.17,8.5,56.3,25.25,74.71s39.35,27.55,67.54,27.55,50.14-9.09,67-27.8,25.27-43.64,25.27-74.46c0-31.15-8.5-56.29-25.25-74.71S999.77,129.08,971.93,129.08Z"/><path class="cls-2" d="M971.93,42.59q52.05,0,95.43,24.18a177.75,177.75,0,0,1,68.35,67.3q25,43.11,25,97.26t-25.24,97.53a179.37,179.37,0,0,1-68.35,67.56Q1024,420.6,971.93,420.6t-95.42-24.18a180.74,180.74,0,0,1-68.88-67.56q-25.5-43.38-25.49-97.53t25.49-97.26a181.42,181.42,0,0,1,68.88-67.3q43.38-24.18,95.42-24.18m0,296q44.18,0,70.72-29.45t26.55-77.81q0-48.89-26.55-78.07t-70.72-29.18q-44.68,0-71.24,28.91t-26.55,78.34q0,48.9,26.55,78.08t71.24,29.18m0-306c-36.25,0-70,8.56-100.29,25.45A192,192,0,0,0,799,129c-17.85,30.16-26.89,64.6-26.89,102.35s9,72.27,26.87,102.6a191.43,191.43,0,0,0,72.63,71.22c30.28,16.89,64,25.45,100.29,25.45S1041.87,422,1072,405.14a190.13,190.13,0,0,0,72.1-71.25c17.64-30.33,26.59-64.84,26.59-102.56s-8.86-72.11-26.32-102.27a188.24,188.24,0,0,0-72.13-71c-30.3-16.89-64-25.45-100.3-25.45Zm0,296c-27.1,0-48-8.48-63.84-25.91s-24-41.47-24-71.35c0-30.21,8.05-54.29,23.92-71.57s36.76-25.68,63.87-25.68c26.74,0,47.46,8.47,63.32,25.91s24,41.47,24,71.34c0,29.54-8.07,53.47-24,71.12s-36.56,26.14-63.29,26.14Z"/><path class="cls-5" d="M1361.52,425.6c-29.75,0-56.77-5.92-80.3-17.61-23.75-11.77-42.76-29.77-56.52-53.49s-20.65-52.66-20.65-86.36V42.84H1304V268.66c0,20.7,5,36.73,15,47.63s24.68,16.24,44.15,16.24,34.55-5.48,44.73-16.3,15.47-26.9,15.47-47.57V42.84h99.9v225.3c0,33.72-7.32,62.73-21.77,86.21a140.23,140.23,0,0,1-58.58,53.4C1418.6,419.6,1391.24,425.6,1361.52,425.6Z"/><path class="cls-2" d="M1518.19,47.84v220.3q0,49.41-21,83.59a134.56,134.56,0,0,1-56.52,51.52q-35.49,17.36-79.12,17.35t-78.08-17.08Q1249,386.44,1229,352t-20-83.85V47.84H1299V268.66q0,33.12,16.3,51t47.84,17.87q31.54,0,48.37-17.87t16.83-51V47.84h89.9m10-10h-109.9V268.66c0,19.35-4.75,34.2-14.11,44.14s-22.77,14.73-41.09,14.73-31.49-4.77-40.45-14.61S1309,288.08,1309,268.66V37.84h-109.9v230.3c0,34.59,7.17,64.49,21.33,88.87,14.25,24.58,34,43.25,58.62,55.47,24.23,12,52,18.12,82.52,18.12s58.59-6.18,83.51-18.36A145.15,145.15,0,0,0,1505.68,357c14.94-24.28,22.51-54.17,22.51-88.83V37.84Z"/><polygon class="cls-6" points="1654.09 421.92 1654.09 124.87 1556.3 124.87 1556.3 42.84 1851.78 42.84 1851.78 124.87 1753.99 124.87 1753.99 421.92 1654.09 421.92"/><path class="cls-2" d="M1846.78,47.84v72H1749V416.92h-89.9v-297h-97.8v-72h285.49m10-10H1551.29v92h97.8V426.92H1759v-297h97.79v-92Z"/><path class="cls-7" d="M2154.34,425.6c-29.75,0-56.76-5.92-80.3-17.61-23.75-11.77-42.76-29.77-56.52-53.49s-20.65-52.66-20.65-86.36V42.84h99.9V268.66c0,20.7,5.05,36.73,15,47.63s24.68,16.24,44.15,16.24,34.55-5.48,44.73-16.3,15.47-26.91,15.47-47.57V42.84H2316v225.3c0,33.72-7.32,62.73-21.77,86.21a140.23,140.23,0,0,1-58.58,53.4C2211.42,419.6,2184.06,425.6,2154.34,425.6Z"/><path class="cls-2" d="M2311,47.84v220.3q0,49.41-21,83.59a134.56,134.56,0,0,1-56.52,51.52q-35.49,17.36-79.12,17.35t-78.08-17.08q-34.44-17.08-54.41-51.53t-20-83.85V47.84h89.9V268.66q0,33.12,16.3,51t47.84,17.87q31.55,0,48.37-17.87t16.83-51V47.84H2311m10-10h-109.9V268.66c0,19.35-4.75,34.2-14.11,44.14s-22.77,14.73-41.09,14.73-31.49-4.77-40.45-14.61-13.69-24.84-13.69-44.26V37.84h-109.9v230.3c0,34.59,7.17,64.49,21.33,88.87,14.25,24.58,34,43.25,58.62,55.47,24.23,12,52,18.12,82.52,18.12s58.59-6.18,83.51-18.36A145.09,145.09,0,0,0,2298.5,357c14.94-24.28,22.51-54.17,22.51-88.83V37.84Z"/><path class="cls-8" d="M2507.64,425.6c-27.53,0-52.58-4.54-74.46-13.51-22.13-9.07-40.08-22.71-53.37-40.55s-20.5-39.75-21.23-64.88l-.15-5.15h105.35l.46,4.5c1.26,12.33,5.48,21.77,12.55,28.05s16.4,9.51,28.22,9.51c12.1,0,21.66-2.72,28.43-8.11,6.51-5.18,9.68-12.24,9.68-21.58,0-7.77-2.51-14-7.69-19a69.61,69.61,0,0,0-21.1-13.71c-8.69-3.75-21.33-8.1-37.56-12.95-24-7.41-43.9-14.94-59.13-22.38-15.73-7.67-29.42-19.14-40.7-34.07-11.48-15.18-17.31-35.13-17.31-59.27,0-35.81,13.21-64.29,39.25-84.64,25.67-20.07,59.43-30.24,100.34-30.24,41.61,0,75.72,10.17,101.4,30.24,26,20.29,40.05,48.86,41.87,84.91l.27,5.25H2535.52l-.28-4.7c-.63-10.59-4.35-18.64-11.38-24.61-7.2-6.1-16.29-9.07-27.79-9.07-9.71,0-17.24,2.44-23,7.45-5.56,4.83-8.27,11.77-8.27,21.2,0,10.12,4.71,17.83,14.38,23.57,10.86,6.45,28.2,13.55,51.56,21.1,24,8.13,43.77,16,58.77,23.4a116.18,116.18,0,0,1,40.38,33.49c11.51,14.87,17.35,34.12,17.35,57.22A111.69,111.69,0,0,1,2630.44,367c-11.14,17.89-27.47,32.31-48.54,42.84S2536,425.6,2507.64,425.6Z"/><path class="cls-2" d="M2499.22,42.59q61,0,98.32,29.18t40,81.22h-97.27q-1-17.87-13.14-28.12t-31-10.26q-16.31,0-26.29,8.68t-10,25q0,17.88,16.83,27.87t52.57,21.55q35.74,12.1,58.1,23.14a110.68,110.68,0,0,1,38.64,32.07q16.29,21,16.3,54.15,0,31.54-16,57.31t-46.52,41q-30.51,15.25-72,15.24-40.5,0-72.56-13.14t-51.26-38.91q-19.2-25.76-20.24-62h95.69q2.08,20.5,14.19,31.29T2505,348.57q20,0,31.54-9.2t11.57-25.49q0-13.67-9.2-22.61a74.34,74.34,0,0,0-22.61-14.72q-13.41-5.79-38.12-13.15-35.76-11-58.35-22.08t-38.91-32.6q-16.3-21.54-16.3-56.25,0-51.52,37.33-80.7t97.26-29.18m0-10c-42,0-76.85,10.53-103.42,31.3-27.32,21.35-41.17,51.15-41.17,88.58,0,25.26,6.17,46.21,18.32,62.29a118.19,118.19,0,0,0,42.5,35.55c15.45,7.55,35.57,15.17,59.79,22.65h.05l.05,0c16,4.78,28.5,9.07,37,12.74a65,65,0,0,1,19.6,12.71c4.21,4.09,6.17,9,6.17,15.44,0,7.83-2.48,13.44-7.79,17.67-5.86,4.66-14.38,7-25.32,7-10.53,0-18.67-2.69-24.89-8.24s-9.76-13.63-10.9-24.83l-.92-9h-115l.29,10.29c.76,26.18,8.24,49,22.22,67.73,13.84,18.58,32.51,32.77,55.49,42.18,22.48,9.22,48.17,13.89,76.35,13.89,29.13,0,54.87-5.48,76.5-16.3,21.9-10.95,38.91-26,50.54-44.67s17.55-39.76,17.55-62.59c0-24.24-6.19-44.52-18.39-60.28a121.25,121.25,0,0,0-42.12-34.91c-15.2-7.51-35.16-15.46-59.32-23.64l-.07,0-.06,0c-23-7.44-40-14.38-50.54-20.64-8.15-4.83-11.94-10.95-11.94-19.27,0-7.9,2.14-13.6,6.55-17.42,4.82-4.19,11.27-6.23,19.73-6.23,10.26,0,18.3,2.58,24.56,7.89,5.93,5,9.08,11.93,9.62,21.09l.56,9.4H2648l-.53-10.5c-1.91-37.57-16.64-67.38-43.79-88.6-26.58-20.77-61.73-31.3-104.48-31.3Z"/></svg>