<svg id="Layer_1" data-name="Layer 1" xmlns="http://www.w3.org/2000/svg" xmlns:xlink="http://www.w3.org/1999/xlink" viewBox="0 0 2692.31 451.58"><defs><style>.cls-1{fill:url(#linear-gradient);}.cls-2{fill:#fefefe;}.cls-3{fill:url(#linear-gradient-2);}.cls-4{fill:url(#linear-gradient-3);}.cls-5{fill:url(#linear-gradient-4);}.cls-6{fill:url(#linear-gradient-5);}.cls-7{fill:url(#linear-gradient-6);}.cls-8{fill:url(#linear-gradient-7);}</style><linearGradient id="linear-gradient" x1="2819.53" y1="710.01" x2="-9.36" y2="204.85" gradientUnits="userSpaceOnUse"><stop offset="0" stop-color="#61b1d4"/><stop offset="0.85" stop-color="#b36ad5"/></linearGradient><linearGradient id="linear-gradient-2" x1="2777.21" y1="624.97" x2="-4.2" y2="128.29" xlink:href="#linear-gradient"/><linearGradient id="linear-gradient-3" x1="2798.79" y1="571.09" x2="-15.97" y2="68.46" xlink:href="#linear-gradient"/><linearGradient id="linear-gradient-4" x1="2783.5" y1="502.49" x2="-7.49" y2="4.1" xlink:href="#linear-gradient"/><linearGradient id="linear-gradient-5" x1="2781.37" y1="411.62" x2="5.1" y2="-84.14" xlink:href="#linear-gradient"/><linearGradient id="linear-gradient-6" x1="2790.44" y1="348.56" x2="-24.32" y2="-154.07" xlink:href="#linear-gradient"/><linearGradient id="linear-gradient-7" x1="2788.35" y1="282.01" x2="-19.78" y2="-219.44" xlink:href="#linear-gradient"/></defs><path class="cls-1" d="M209.3,413.21,133.43,275.5H120.07V413.21H21.21V38.41H175.35c29.4,0,54.88,5.25,75.76,15.59,21.06,10.45,37.07,25,47.58,43.3s15.73,38.7,15.73,61c0,25.21-7.22,48.05-21.46,67.88-13.23,18.42-32.43,32-57.15,40.48l85.43,146.6ZM170.16,202.62c14.85,0,26-3.54,33.13-10.52S214,175.16,214,161.89c0-12.56-3.5-22.1-10.71-29.16S185,122.2,170.16,122.2H120.07v80.42Z"/><path class="cls-2" d="M175.35,43.41q43.14,0,73.54,15.07t45.47,41.31q15.06,26.25,15.06,58.46,0,36.39-20.52,65t-60.54,40.53l84.18,144.47H212.25L136.38,270.5H115.07V408.21H26.21V43.41H175.35M115.07,207.62h55.09q24.42,0,36.63-12T219,161.89q0-20.77-12.21-32.74t-36.63-12H115.07v90.42M175.35,33.41H16.21v384.8H125.07V280.5h5.4l73,132.53,2.85,5.18h123.6l-8.76-15-78-133.91c23-8.89,41.06-22.39,53.87-40.21,14.87-20.7,22.4-44.52,22.4-70.8,0-23.14-5.51-44.48-16.39-63.44-11-19.16-27.74-34.39-49.7-45.29-21.57-10.69-47.81-16.11-78-16.11ZM125.07,127.2h45.09c13.49,0,23.47,3.06,29.64,9.1s9.2,14.44,9.2,25.59c0,11.86-3,20.57-9.2,26.63s-16.14,9.1-29.64,9.1H125.07V127.2Z"/><path class="cls-3" d="M537.55,416.85c-35,0-67.56-8.26-96.75-24.54a184.36,184.36,0,0,1-69.95-68.61c-17.18-29.22-25.9-62.5-25.9-98.93s8.72-69.63,25.9-98.68A185,185,0,0,1,440.8,57.75C470,41.47,502.56,33.21,537.55,33.21s67.54,8.26,96.75,24.54a181.3,181.3,0,0,1,69.45,68.38c16.83,29.06,25.36,62.25,25.36,98.64s-8.62,69.69-25.63,98.91a183,183,0,0,1-69.43,68.62C605,408.59,572.56,416.85,537.55,416.85Zm0-293.09c-27.85,0-50.3,9.07-66.73,27s-24.93,42.93-24.93,74.05c0,30.79,8.4,55.62,24.94,73.8s38.87,27.21,66.72,27.21,49.53-9,66.18-27.45,25-43.11,25-73.56c0-30.78-8.4-55.61-25-73.8S565.43,123.76,537.55,123.76Z"/><path class="cls-2" d="M537.55,38.21q51.45,0,94.32,23.91a175.59,175.59,0,0,1,67.55,66.51q24.68,42.62,24.69,96.14t-25,96.4a177.35,177.35,0,0,1-67.55,66.77Q589,411.85,537.55,411.85t-94.32-23.91a178.62,178.62,0,0,1-68.07-66.77Q349.95,278.3,350,224.77t25.21-96.14a179.31,179.31,0,0,1,68.07-66.51q42.87-23.9,94.32-23.91m0,292.57q43.65,0,69.89-29.1t26.25-76.91q0-48.33-26.25-77.17t-69.89-28.84q-44.17,0-70.41,28.58t-26.25,77.43q0,48.33,26.25,77.17t70.41,28.84m0-302.57c-35.85,0-69.22,8.47-99.19,25.17a190.09,190.09,0,0,0-71.81,70.16C348.9,153.37,340,187.43,340,224.77s8.95,71.47,26.59,101.47a189.4,189.4,0,0,0,71.82,70.44c29.95,16.7,63.32,25.17,99.19,25.17s69.16-8.48,99-25.19a188.06,188.06,0,0,0,71.31-70.46c17.45-30,26.3-64.12,26.3-101.43s-8.76-71.32-26-101.15a186.33,186.33,0,0,0-71.34-70.24c-30-16.7-63.34-25.17-99.19-25.17Zm0,292.57c-26.75,0-47.37-8.36-63-25.57s-23.64-40.94-23.64-70.44c0-29.83,7.95-53.6,23.61-70.66s36.28-25.35,63-25.35c26.4,0,46.84,8.37,62.5,25.57s23.64,40.94,23.64,70.44c0,29.17-8,52.79-23.67,70.21s-36.09,25.8-62.47,25.8Z"/><path class="cls-4" d="M1018.8,413.21,997,348.77H868l-21.83,64.44H742.44L878.05,38.41H988l135.61,374.8Zm-48.08-143L932.51,157.3,894.74,270.18Z"/><path class="cls-2" d="M984.45,43.41l132,364.8h-94.05l-21.83-64.44H864.41l-21.82,64.44h-93l132-364.8H984.45M887.8,275.18h89.9L932.49,141.63,887.8,275.18M991.47,33.41H874.54L872.16,40l-132,364.8-4.85,13.4H849.76l2.3-6.79,19.52-57.65H993.39l19.53,57.65,2.3,6.79H1130.7l-4.85-13.4L993.86,40l-2.39-6.6ZM901.69,265.18,932.54,173l31.21,92.21Z"/><path class="cls-5" d="M1151.46,413.21V38.41h141.67c39.08,0,73.79,7.89,103.15,23.45s52.61,37.87,68.78,66.11,24.3,61.1,24.3,97.84c0,36.39-8.17,69.22-24.3,97.57s-39.4,50.76-69,66.39-64.12,23.44-102.88,23.44Zm136-86.91c32.1,0,57.32-8.78,75-26.11s26.56-42.32,26.56-74.38-9-57.28-26.6-74.93-42.85-26.6-74.93-26.6h-37.09v202Z"/><path class="cls-2" d="M1293.13,43.41q57.67,0,100.81,22.87t66.78,64.17q23.64,41.31,23.64,95.36,0,53.52-23.64,95.1t-67,64.43q-43.4,22.88-100.55,22.87H1156.46V43.41h136.67M1245.32,331.3h42.09q50.4,0,78.47-27.54t28.06-77.95q0-50.4-28.06-78.47t-78.47-28.06h-42.09v212m47.81-297.89H1146.46v384.8h146.67c39.58,0,75-8.08,105.21-24,30.51-16.07,54.42-39.07,71.07-68.34,16.56-29.11,24.95-62.77,24.95-100,0-37.62-8.4-71.37-25-100.32s-40.46-52-70.77-68c-30.1-15.95-65.59-24-105.5-24Zm-37.81,95.87h32.09c30.7,0,54.72,8.46,71.4,25.13s25.13,40.7,25.13,71.4c0,31.1-8.2,54.26-25.07,70.81-16.67,16.38-40.72,24.68-71.46,24.68h-32.09v-192Z"/><polygon class="cls-6" points="1853.51 413.21 1853.51 217.15 1780.39 413.21 1701.74 413.21 1628.1 216.53 1628.1 413.21 1529.24 413.21 1529.24 38.41 1642.58 38.41 1741.56 282.6 1839.54 38.41 1952.37 38.41 1952.37 413.21 1853.51 413.21"/><path class="cls-2" d="M1947.37,43.41v364.8h-88.86V189.43l-81.59,218.78h-71.71l-82.11-219.3v219.3h-88.86V43.41h105L1741.58,296,1842.92,43.41h104.45m10-10H1836.16l-2.52,6.28-92.1,229.54L1648.48,39.65,1646,33.41H1524.24v384.8H1633.1V244.14l62.74,167.58,2.44,6.49h85.58l2.43-6.51,62.22-166.83V418.21h108.86V33.41Z"/><path class="cls-7" d="M2256.62,413.21l-21.83-64.44h-129L2084,413.21H1980.26l135.61-374.8h109.9l135.61,374.8Zm-48.08-143L2170.33,157.3l-37.77,112.88Z"/><path class="cls-2" d="M2222.27,43.41l132,364.8H2260.2l-21.82-64.44H2102.23l-21.83,64.44h-93l132-364.8h102.9m-96.66,231.77h89.9L2170.3,141.63l-44.69,133.55M2229.28,33.41H2112.36L2110,40l-132,364.8-4.85,13.4h114.44l2.3-6.79,19.53-57.65h121.81l19.52,57.65,2.3,6.79h115.48l-4.85-13.4L2231.67,40l-2.39-6.6ZM2139.5,265.18,2170.36,173l31.21,92.21Z"/><path class="cls-8" d="M2389.27,413.21V38.41h148.95c29.74,0,55.32,5.25,76,15.6,20.91,10.46,36.83,25.12,47.32,43.57s15.73,39.64,15.73,63.27c0,21.89-5.11,42.2-15.18,60.37s-25.85,33.19-46.71,44.34-46.7,16.7-77.18,16.7h-50.09v131Zm142.19-211.63c15.57,0,27.17-3.55,34.48-10.56s10.93-16.91,10.93-30.17-3.58-23.11-10.93-30.17-18.92-10.56-34.48-10.56h-43.33v81.46Z"/><path class="cls-2" d="M2538.22,43.41q43.65,0,73.79,15.07t45.21,41.57q15.06,26.51,15.07,60.8,0,31.71-14.55,57.94t-44.69,42.36q-30.15,16.11-74.83,16.11h-55.09v131h-88.86V43.41h143.95m-55.09,163.17h48.33q25.45,0,37.94-12t12.47-33.78q0-21.82-12.47-33.77t-37.94-12h-48.33v91.46m55.09-173.17H2384.27v384.8h108.86V287.26h45.09c31.32,0,58.08-5.82,79.54-17.29,21.72-11.61,38.12-27.2,48.72-46.33,10.49-18.92,15.81-40,15.81-62.79,0-24.5-5.51-46.62-16.38-65.74-11-19.33-27.63-34.66-49.43-45.57-21.41-10.7-47.74-16.13-78.26-16.13Zm-45.09,91.71h38.33c14.23,0,24.67,3.09,31,9.18s9.39,14.74,9.39,26.55-3.07,20.51-9.39,26.56-16.78,9.17-31,9.17h-38.33V125.12Z"/></svg>