<svg id="Layer_1" data-name="Layer 1" xmlns="http://www.w3.org/2000/svg" xmlns:xlink="http://www.w3.org/1999/xlink" viewBox="0 0 1782.85 451.58"><defs><style>.cls-1{fill:url(#linear-gradient);}.cls-2{fill:#fefefe;}.cls-3{fill:url(#linear-gradient-2);}.cls-4{fill:url(#linear-gradient-3);}.cls-5{fill:url(#linear-gradient-4);}.cls-6{fill:url(#linear-gradient-5);}</style><linearGradient id="linear-gradient" x1="-71.3" y1="174.97" x2="1718.84" y2="610.02" gradientUnits="userSpaceOnUse"><stop offset="0" stop-color="#61b1d4"/><stop offset="0.85" stop-color="#b36ad5"/></linearGradient><linearGradient id="linear-gradient-2" x1="-58.57" y1="88.44" x2="1721.75" y2="521.11" xlink:href="#linear-gradient"/><linearGradient id="linear-gradient-3" x1="-49.51" y1="-6.7" x2="1736.77" y2="427.42" xlink:href="#linear-gradient"/><linearGradient id="linear-gradient-4" x1="-53.69" y1="-103.04" x2="1755.61" y2="336.67" xlink:href="#linear-gradient"/><linearGradient id="linear-gradient-5" x1="-45.63" y1="-178.25" x2="1757.58" y2="259.98" xlink:href="#linear-gradient"/></defs><path class="cls-1" d="M166.14,425.6c-27.53,0-52.58-4.54-74.45-13.51C69.56,403,51.6,389.38,38.31,371.54s-20.5-39.75-21.23-64.88l-.14-5.15H122.28l.46,4.5c1.26,12.32,5.48,21.76,12.55,28.05s16.41,9.51,28.22,9.51c12.1,0,21.67-2.72,28.43-8.11,6.52-5.18,9.68-12.24,9.68-21.58,0-7.77-2.51-14-7.69-19a69.61,69.61,0,0,0-21.1-13.71c-8.69-3.75-21.33-8.1-37.56-12.95-24-7.41-43.9-14.94-59.13-22.38a113.22,113.22,0,0,1-40.7-34.07C24,196.56,18.13,176.61,18.13,152.47c0-35.81,13.21-64.29,39.25-84.64,25.67-20.07,59.43-30.24,100.35-30.24,41.6,0,75.72,10.17,101.39,30.24,26,20.29,40.05,48.86,41.87,84.91l.27,5.25H194l-.28-4.7c-.62-10.59-4.35-18.64-11.38-24.61-7.2-6.1-16.29-9.07-27.79-9.07-9.71,0-17.24,2.44-23,7.45-5.56,4.83-8.27,11.77-8.27,21.2,0,10.12,4.71,17.83,14.38,23.57,10.86,6.45,28.21,13.55,51.56,21.1,24,8.13,43.77,16,58.77,23.4a116.18,116.18,0,0,1,40.38,33.49c11.52,14.87,17.35,34.12,17.35,57.22A111.69,111.69,0,0,1,288.94,367c-11.14,17.89-27.47,32.31-48.54,42.84C219.48,420.3,194.49,425.6,166.14,425.6Z"/><path class="cls-2" d="M157.73,42.59q61,0,98.31,29.18T296,153H198.74q-1.06-17.87-13.15-28.12t-31-10.26q-16.31,0-26.29,8.68t-10,25q0,17.88,16.83,27.87t52.57,21.55q35.76,12.1,58.1,23.14a110.59,110.59,0,0,1,38.64,32.07q16.29,21,16.3,54.15,0,31.54-16,57.31t-46.53,41q-30.51,15.25-72,15.24-40.5,0-72.56-13.14T42.32,368.55q-19.2-25.76-20.24-62h95.69Q119.87,327,132,337.8t31.55,10.77q20,0,31.55-9.2t11.56-25.49q0-13.67-9.2-22.61a74.34,74.34,0,0,0-22.61-14.72q-13.4-5.79-38.11-13.15-35.76-11-58.36-22.08t-38.91-32.6q-16.3-21.54-16.3-56.25,0-51.52,37.33-80.7t97.27-29.18m0-10c-42.06,0-76.86,10.53-103.43,31.3C27,85.24,13.13,115,13.13,152.47c0,25.26,6.17,46.21,18.33,62.29A118.07,118.07,0,0,0,74,250.31c15.46,7.55,35.58,15.17,59.8,22.65h0l.05,0c16,4.78,28.5,9.07,37,12.74a65.07,65.07,0,0,1,19.61,12.71c4.2,4.09,6.16,9,6.16,15.44,0,7.83-2.47,13.44-7.79,17.67-5.86,4.66-14.38,7-25.32,7-10.53,0-18.67-2.69-24.89-8.24s-9.76-13.63-10.9-24.83l-.92-9h-115l.3,10.29c.75,26.18,8.23,49,22.22,67.73,13.83,18.58,32.5,32.77,55.48,42.18,22.48,9.22,48.17,13.89,76.35,13.89,29.13,0,54.87-5.48,76.5-16.3,21.9-10.95,38.91-26,50.55-44.67s17.54-39.76,17.54-62.59c0-24.24-6.19-44.52-18.39-60.28a121.16,121.16,0,0,0-42.12-34.91c-15.2-7.51-35.16-15.46-59.32-23.64l-.06,0-.07,0c-23-7.44-40-14.38-50.54-20.64-8.15-4.83-11.94-10.95-11.94-19.27,0-7.9,2.15-13.6,6.55-17.42,4.82-4.19,11.28-6.23,19.73-6.23,10.27,0,18.3,2.58,24.56,7.89,5.93,5,9.08,11.93,9.62,21.09l.56,9.4H306.52l-.53-10.5c-1.91-37.57-16.64-67.38-43.79-88.6-26.58-20.77-61.73-31.3-104.47-31.3Z"/><path class="cls-3" d="M530.48,425.6c-35.4,0-68.33-8.35-97.86-24.81a186.45,186.45,0,0,1-70.75-69.4c-17.37-29.55-26.19-63.21-26.19-100.06s8.82-70.43,26.2-99.81A187.21,187.21,0,0,1,432.62,62.4c29.55-16.46,62.47-24.81,97.86-24.81s68.32,8.35,97.86,24.81a183.41,183.41,0,0,1,70.24,69.16c17,29.39,25.65,63,25.65,99.77s-8.72,70.49-25.92,100a185.17,185.17,0,0,1-70.22,69.41C598.73,417.25,565.89,425.6,530.48,425.6Zm0-296.52c-28.19,0-50.92,9.18-67.55,27.3s-25.24,43.45-25.24,75c0,31.17,8.5,56.3,25.25,74.71s39.35,27.55,67.54,27.55,50.14-9.09,67-27.8,25.27-43.64,25.27-74.46c0-31.15-8.5-56.29-25.25-74.71S558.71,129.08,530.48,129.08Z"/><path class="cls-2" d="M530.48,42.59q52,0,95.43,24.18a177.66,177.66,0,0,1,68.34,67.3q25,43.11,25,97.26T694,328.86a179.37,179.37,0,0,1-68.35,67.56q-43.11,24.18-95.16,24.18t-95.42-24.18a180.74,180.74,0,0,1-68.88-67.56q-25.5-43.38-25.5-97.53t25.5-97.26a181.42,181.42,0,0,1,68.88-67.3q43.37-24.18,95.42-24.18m0,296q44.16,0,70.72-29.45t26.55-77.81q0-48.89-26.55-78.07t-70.72-29.18q-44.69,0-71.24,28.91t-26.55,78.34q0,48.9,26.55,78.08t71.24,29.18m0-306c-36.25,0-70,8.56-100.29,25.45A192,192,0,0,0,357.58,129c-17.85,30.16-26.9,64.6-26.9,102.35s9.05,72.27,26.88,102.6a191.43,191.43,0,0,0,72.63,71.22c30.28,16.89,64,25.45,100.29,25.45s69.94-8.56,100.06-25.46a190.13,190.13,0,0,0,72.1-71.25c17.64-30.33,26.59-64.84,26.59-102.56s-8.86-72.11-26.32-102.27a188.3,188.3,0,0,0-72.13-71c-30.3-16.89-64-25.45-100.3-25.45Zm0,296c-27.1,0-48-8.48-63.84-25.91s-23.95-41.47-23.95-71.35c0-30.21,8.05-54.29,23.92-71.57s36.76-25.68,63.87-25.68c26.74,0,47.45,8.47,63.32,25.91s24,41.47,24,71.34c0,29.54-8.07,53.47-24,71.12s-36.56,26.14-63.29,26.14Z"/><polygon class="cls-4" points="1006.75 421.92 864.08 205.91 864.08 421.92 764.17 421.92 764.17 42.84 861.77 42.84 1004.44 259.84 1004.44 42.84 1104.35 42.84 1104.35 421.92 1006.75 421.92"/><path class="cls-2" d="M1099.35,47.84V416.92h-89.91L859.08,189.27V416.92H769.17V47.84h89.91l150.36,228.71V47.84h89.91m10-10H999.44v205.3l-132-200.79-3-4.51H759.17V426.92H869.08V222.56l132,199.88,3,4.48h105.29V37.84Z"/><polygon class="cls-5" points="1376.04 421.92 1259.44 268.76 1259.44 421.92 1159.54 421.92 1159.54 42.84 1259.44 42.84 1259.44 194.93 1374.99 42.84 1493.47 42.84 1346.51 228.71 1498.71 421.92 1376.04 421.92"/><path class="cls-2" d="M1483.15,47.84l-143,180.86L1488.4,416.92H1378.52l-124.08-163v163h-89.9V47.84h89.9V209.78l123-161.94h105.68m20.65-10H1372.51l-3,3.95L1264.44,180.08V37.84h-109.9V426.92h109.9V283.58L1370.57,423l3,3.94H1509l-12.75-16.18-143.38-182L1491,54.05l12.81-16.21Z"/><polygon class="cls-6" points="1525.99 421.92 1525.99 42.84 1762.06 42.84 1762.06 124.87 1625.89 124.87 1625.89 189.53 1746.29 189.53 1746.29 268.93 1625.89 268.93 1625.89 339.89 1762.06 339.89 1762.06 421.92 1525.99 421.92"/><path class="cls-2" d="M1757.06,47.84v72H1620.89v74.66h120.4v69.4h-120.4v81h136.17v72H1531V47.84h226.07m10-10H1521V426.92h246.07v-92H1630.89v-61h120.4v-89.4h-120.4V129.87h136.17v-92Z"/></svg>